<?xml version="1.0" ?><!DOCTYPE svg  PUBLIC '-//W3C//DTD SVG 1.1//EN'  'http://www.w3.org/Graphics/SVG/1.1/DTD/svg11.dtd'><svg enable-background="new 0 0 24 24" height="24px" id="Layer_1" version="1.1" viewBox="0 0 24 24" width="24px" xml:space="preserve" xmlns="http://www.w3.org/2000/svg" xmlns:xlink="http://www.w3.org/1999/xlink"><g><path d="M21.8,5.2C19.7,2,16.1,0,12,0C5.4,0,0,5.4,0,12h2C2,6.5,6.5,2,12,2c3.5,0,6.6,1.8,8.4,4.6L18,9h6V3L21.8,5.2z" fill="#607D8B"/><circle cx="4" cy="12" r="1" fill="#607D8B"/><circle cx="6.3" cy="6.3" r="1" fill="#607D8B"/><circle cx="17.7" cy="6.3" r="1" fill="#607D8B"/><circle cx="20" cy="12" r="1" fill="#607D8B"/><path d="M16.9,18.4c0.4,0.4,1,0.4,1.4,0c0.4-0.4,0.4-1,0-1.4c-0.4-0.4-1-0.4-1.4,0C16.6,17.3,16.6,18,16.9,18.4z" fill="#607D8B"/><circle cx="12" cy="20" r="1" fill="#607D8B"/><path d="M5.6,16.9c-0.4,0.4-0.4,1,0,1.4c0.4,0.4,1,0.4,1.4,0c0.4-0.4,0.4-1,0-1.4C6.7,16.6,6,16.6,5.6,16.9z" fill="#607D8B"/><path d="M12,3c-0.6,0-1,0.4-1,1v6.3c-0.6,0.3-1,1-1,1.7c0,1.1,0.9,2,2,2c0.2,0,0.3,0,0.5-0.1l1.6,1.6c0.4,0.4,1,0.4,1.4,0   s0.4-1,0-1.4l-1.6-1.6c0-0.2,0.1-0.3,0.1-0.5c0-0.7-0.4-1.4-1-1.7V4C13,3.4,12.6,3,12,3z M11,12c0-0.6,0.4-1,1-1s1,0.4,1,1   s-0.4,1-1,1c-0.1,0-0.3,0-0.4-0.1c-0.1-0.1-0.2-0.1-0.3-0.2l0,0C11.1,12.5,11,12.3,11,12z" fill="#607D8B"/><path d="M12,22c-3.5,0-6.6-1.8-8.4-4.6L6,15H0v6l2.2-2.2C4.3,21.9,7.9,24,12,24c6.6,0,12-5.4,12-12h-2C22,17.5,17.5,22,12,22z" fill="#607D8B"/></g></svg>