<?xml version="1.0" ?><!DOCTYPE svg  PUBLIC '-//W3C//DTD SVG 1.1//EN'  'http://www.w3.org/Graphics/SVG/1.1/DTD/svg11.dtd'><svg enable-background="new 0 0 24 24" height="24px" id="Layer_1" version="1.1" viewBox="0 0 24 24" width="24px" xml:space="preserve" xmlns="http://www.w3.org/2000/svg" xmlns:xlink="http://www.w3.org/1999/xlink"><g><path d="M16,0c-4.4,0-8,3.6-8,8c0,0.9,0.2,1.8,0.4,2.6L0,19v5h5l1-1h0v0v-2h2v-2h2v-2h1.9l1.4-1.5c0.8,0.3,1.7,0.5,2.7,0.5   c4.4,0,8-3.6,8-8S20.4,0,16,0z M11.5,16H9v2H7v2H5v2.5L4.5,23H1v-3.5l7.9-7.9c0.1,0.3,0.3,0.6,0.5,0.8L2,19.8l0,1.4l8-8   c0.7,0.8,1.5,1.4,2.4,1.9L11.5,16z M16,14c-3.3,0-6-2.7-6-6s2.7-6,6-6s6,2.7,6,6S19.3,14,16,14z" fill="#ffffff"/><path d="M17.5,4C16.1,4,15,5.1,15,6.5S16.1,9,17.5,9S20,7.9,20,6.5S18.9,4,17.5,4z M17.5,8C16.7,8,16,7.3,16,6.5S16.7,5,17.5,5   S19,5.7,19,6.5S18.3,8,17.5,8z" fill="#ffffff"/></g></svg>